Coordinates
version=1
nRows=12
nColumns=42
inDegrees=yes

Units are S.I. units (second, meters, Newtons, ...)
If the header above contains a line with 'inDegrees', this indicates whether rotational values are in degrees (yes) or radians (no).

endheader
time	pelvis_tilt	pelvis_list	pelvis_rotation	pelvis_tx	pelvis_ty	pelvis_tz	hip_flexion_r	hip_adduction_r	hip_rotation_r	knee_angle_r	knee_adduction_r	knee_angle_r_beta	ankle_angle_r	subtalar_angle_r	mtp_angle_r	hip_flexion_l	hip_adduction_l	hip_rotation_l	knee_angle_l	knee_adduction_l	knee_angle_l_beta	ankle_angle_l	subtalar_angle_l	mtp_angle_l	lumbar_extension	lumbar_bending	lumbar_rotation	arm_flex_r	arm_add_r	arm_rot_r	elbow_flex_r	pro_sup_r	wrist_flex_r	wrist_dev_r	arm_flex_l	arm_add_l	arm_rot_l	elbow_flex_l	pro_sup_l	wrist_flex_l	wrist_dev_l
      1.00000000	      4.89291440	     -0.22137534	     -1.60235066	     -0.61892873	      0.93382003	     -0.09184825	     11.56299318	     -8.27856345	    -23.44101591	     34.18403709	      1.75240844	      0.59662400	     14.98358669	     14.27979760	     -9.65938990	     -3.40054588	     -2.34175832	    -16.80055331	     27.16410734	      1.36514536	      0.47410311	     22.94585771	      2.47913955	     -9.65938990	    -16.86860033	      1.82097513	     -2.84109395	      8.30855388	    -11.99926546	      3.79216565	     39.16827718	     90.00000001	      0.00000000	      0.00000000	    -14.32309869	     -7.89661031	     -4.18257480	     53.26308848	     90.00000001	      0.00000000	      0.00000000
      1.01000000	      4.74162461	     -0.17977256	     -1.68092267	     -0.61701324	      0.93359033	     -0.09059385	     11.63094328	     -8.23819515	    -23.43778944	     34.21661173	      1.74922778	      0.59719253	     15.02038400	     14.28148372	     -9.65658816	     -3.39208960	     -2.36467683	    -16.83206405	     27.13447846	      1.35607975	      0.47358599	     22.94432426	      2.47821983	     -9.65658816	    -16.85219451	      1.88548012	     -2.93459033	      8.52600639	    -11.93443866	      3.79637220	     39.29275155	     90.00000001	      0.00000000	      0.00000000	    -14.23821477	     -7.88461786	     -4.14737140	     53.30275159	     90.00000001	      0.00000000	      0.00000000
      1.02000000	      4.58205620	     -0.16138871	     -1.73871923	     -0.61508719	      0.93334262	     -0.08936504	     11.72871044	     -8.14303526	    -23.37082137	     34.29451649	      1.70004675	      0.59855223	     15.10654043	     14.28222323	     -9.65272958	     -3.37319064	     -2.41520892	    -16.87964401	     27.09089406	      1.32587014	      0.47282530	     22.93665653	      2.47872060	     -9.65272958	    -16.82306205	      1.99219640	     -3.10843717	      8.77402134	    -11.85170310	      3.81155921	     39.47381678	     90.00000001	      0.00000000	      0.00000000	    -14.21204176	     -7.88897901	     -4.08394003	     53.33866581	     90.00000001	      0.00000000	      0.00000000
      1.03000000	      4.39446498	     -0.16890707	     -1.78891423	     -0.61307823	      0.93303487	     -0.08806814	     11.87603916	     -7.97767995	    -23.21588166	     34.41262772	      1.60281174	      0.60061366	     15.33493964	     14.24008120	     -9.64448241	     -3.31228598	     -2.50437461	    -16.94757639	     27.08299597	      1.25434507	      0.47268745	     22.91069095	      2.50128708	     -9.64448241	    -16.74579646	      2.12843107	     -3.30698022	      8.95469601	    -11.78326846	      3.88122939	     39.71149991	     90.00000001	      0.00000000	      0.00000000	    -14.26171774	     -7.92777667	     -3.96246917	     53.42892932	     90.00000001	      0.00000000	      0.00000000
      1.04000000	      4.09347384	     -0.16386075	     -1.87615099	     -0.61126089	      0.93251076	     -0.08673440	     12.16378889	     -7.80500628	    -22.88042068	     34.50606160	      1.59345308	      0.60224439	     15.85859331	     13.92704501	     -9.61378802	     -3.01775623	     -2.62886493	    -17.19530669	     27.31344429	      1.16372463	      0.47670953	     22.91232701	      2.66112228	     -9.61378802	    -16.56828416	      2.24706725	     -3.35483262	      8.99538538	    -11.86437555	      4.25296675	     40.15424207	     90.00000001	      0.00000000	      0.00000000	    -14.29011430	     -8.04024509	     -3.62047389	     53.71474381	     90.00000001	      0.00000000	      0.00000000
      1.05000000	      3.95988113	     -0.10821580	     -1.90392689	     -0.60941581	      0.93243087	     -0.08556526	     12.20572503	     -7.76350897	    -22.79294710	     34.52503615	      1.59682995	      0.60257556	     15.86245039	     13.90939125	     -9.61080204	     -2.99962368	     -2.64165722	    -17.22862146	     27.30436500	      1.13018668	      0.47655107	     22.91248852	      2.68196624	     -9.61080204	    -16.58157580	      2.32480734	     -3.51178154	      9.19791632	    -11.80105567	      4.28604689	     40.30456755	     90.00000001	      0.00000000	      0.00000000	    -14.20018875	     -8.04738038	     -3.57953004	     53.72321967	     90.00000001	      0.00000000	      0.00000000
      1.06000000	      3.82673199	     -0.07715063	     -1.90848595	     -0.60754333	      0.93235352	     -0.08443405	     12.23663196	     -7.67668206	    -22.60626290	     34.53806284	      1.60938512	      0.60280291	     15.92203411	     13.85589816	     -9.60647903	     -2.95728886	     -2.67256841	    -17.26121301	     27.33138198	      1.03463600	      0.47702260	     22.87640172	      2.72444251	     -9.60647903	    -16.59086538	      2.44795702	     -3.73336119	      9.39960108	    -11.73426761	      4.35090073	     40.52721114	     90.00000001	      0.00000000	      0.00000000	    -14.17953251	     -8.06843947	     -3.51776063	     53.72882921	     90.00000001	      0.00000000	      0.00000000
      1.07000000	      3.58627107	     -0.15284014	     -1.87560028	     -0.60577545	      0.93210983	     -0.08335509	     12.24531116	     -7.44813438	    -21.98060944	     34.33106952	      1.98552572	      0.59919020	     16.32370997	     13.15331016	     -9.57847079	     -2.58296382	     -2.86965174	    -17.56488730	     27.77883314	      0.74071283	      0.48483210	     22.69932013	      3.02882383	     -9.57847079	    -16.48919117	      2.70615343	     -3.87605629	      9.37135382	    -11.92819537	      4.90964583	     41.16983448	     90.00000001	      0.00000000	      0.00000000	    -14.20192815	     -8.14529482	     -3.28947957	     53.96942788	     90.00000001	      0.00000000	      0.00000000
      1.08000000	      3.46531275	     -0.08404912	     -1.93928290	     -0.60396943	      0.93215669	     -0.08212685	     12.27680695	     -7.41049867	    -21.89313638	     34.34064228	      1.97393487	      0.59935728	     16.30668134	     13.09831815	     -9.57561287	     -2.56068006	     -2.87563273	    -17.59979660	     27.80795631	      0.72937577	      0.48534040	     22.70400211	      3.06046108	     -9.57561287	    -16.52489561	      2.77034816	     -3.99632282	      9.53872951	    -11.86286375	      4.96362763	     41.30810251	     90.00000001	      0.00000000	      0.00000000	    -14.12172046	     -8.13902998	     -3.25646275	     53.97424357	     90.00000001	      0.00000000	      0.00000000
      1.09000000	      3.16500701	     -0.28590153	     -2.03952802	     -0.60237864	      0.93182071	     -0.08070679	     12.42639222	     -6.92839778	    -20.94633096	     34.15142697	      2.32670350	      0.59605484	     16.13422824	     11.47519314	     -9.51015560	     -2.02951732	     -3.35807618	    -18.30777216	     28.53749934	      0.46503886	      0.49807332	     22.89272632	      3.79643035	     -9.51015560	    -16.37896584	      3.14943404	     -4.00259503	      9.49571406	    -12.24013307	      6.13281595	     42.13397295	     90.00000001	      0.00000000	      0.00000000	    -14.13104433	     -8.16705721	     -3.07344828	     54.06107962	     90.00000001	      0.00000000	      0.00000000
      1.10000000	      3.05904342	     -0.18557253	     -2.12415474	     -0.60056008	      0.93195801	     -0.07947594	     12.40508343	     -6.94370639	    -20.90742010	     34.11166075	      2.32752144	      0.59536079	     16.15085500	     11.45904213	     -9.50782628	     -1.98460972	     -3.31921908	    -18.28420952	     28.62450772	      0.43974896	      0.49959191	     22.84038789	      3.83228124	     -9.50782628	    -16.41860527	      3.18522975	     -4.04813469	      9.64973187	    -12.19763460	      6.14437552	     42.22984698	     90.00000001	      0.00000000	      0.00000000	    -14.04871777	     -8.17435619	     -3.07037484	     54.09246818	     90.00000001	      0.00000000	      0.00000000
      1.11000000	      2.96445920	     -0.11829712	     -2.07937415	     -0.59898604	      0.93212837	     -0.07842502	     12.25734666	     -6.91811260	    -20.69907348	     33.87134539	      2.49540363	      0.59116650	     16.29269913	     11.36114312	     -9.49427345	     -1.63558775	     -3.38326336	    -18.35356717	     29.29381931	      0.23982595	      0.51127360	     22.44559612	      3.91615647	     -9.49427345	    -16.51111197	      3.29092093	     -4.24628242	      9.74671911	    -12.19878244	      6.28319807	     42.57000678	     90.00000001	      0.00000000	      0.00000000	    -14.02961540	     -8.21587625	     -3.08508479	     54.24763716	     90.00000001	      0.00000000	      0.00000000
